<svg width="24" height="24" viewBox="0 0 24 24" fill="none" xmlns="http://www.w3.org/2000/svg">
<path d="M3.5 4.13526C3.50009 3.75533 3.63248 3.38729 3.87445 3.09437C4.11641 2.80145 4.45283 2.60194 4.82591 2.53011C5.19899 2.45829 5.58544 2.51864 5.91886 2.70079C6.25228 2.88294 6.51186 3.17552 6.653 3.52826L6.797 3.88626C6.18036 4.33712 5.70231 4.95166 5.417 5.66026C5.01127 6.65487 5.0041 7.76751 5.397 8.76726C5.43391 8.86072 5.48923 8.94582 5.55967 9.01748C5.63011 9.08915 5.71423 9.14593 5.80704 9.18446C5.89986 9.22298 5.99946 9.24246 6.09995 9.24174C6.20043 9.24102 6.29975 9.22011 6.392 9.18026L12.352 6.61426C12.5309 6.53735 12.6729 6.39386 12.7479 6.21414C12.823 6.03441 12.8251 5.83256 12.754 5.65126C12.5634 5.15931 12.2767 4.71025 11.9106 4.33029C11.5446 3.95034 11.1065 3.64709 10.622 3.43826C9.84362 3.10425 8.9767 3.03675 8.156 3.24626L8.046 2.97126C7.77552 2.29467 7.2778 1.73343 6.63839 1.384C5.99899 1.03457 5.25784 0.918785 4.54232 1.05654C3.82681 1.19429 3.18162 1.57698 2.71766 2.13883C2.2537 2.70069 1.99994 3.40661 2 4.13526V11.0003H1.75C1.55109 11.0003 1.36032 11.0793 1.21967 11.2199C1.07902 11.3606 1 11.5513 1 11.7503C1 11.9492 1.07902 12.1399 1.21967 12.2806C1.36032 12.4212 1.55109 12.5003 1.75 12.5003H2V12.8553C2 13.2303 2 13.4503 2.016 13.6953C2.158 15.9323 3.366 17.9973 5.118 19.3473C5.10382 19.3692 5.0908 19.3919 5.079 19.4153L4.079 21.4153C3.99198 21.593 3.97874 21.7979 4.04216 21.9854C4.10559 22.1729 4.24053 22.3277 4.41759 22.4161C4.59466 22.5045 4.79948 22.5193 4.98743 22.4573C5.17538 22.3954 5.33123 22.2616 5.421 22.0853L6.389 20.1503C7.19466 20.5617 8.06929 20.821 8.969 20.9153C9.214 20.9403 9.363 20.9453 9.617 20.9553H9.624C10.364 20.9833 11.088 21.0003 11.75 21.0003C12.412 21.0003 13.136 20.9833 13.876 20.9553H13.883C14.137 20.9453 14.287 20.9403 14.531 20.9153C15.4307 20.821 16.3053 20.5617 17.111 20.1503L18.079 22.0863C18.1231 22.1744 18.184 22.253 18.2585 22.3175C18.3329 22.3821 18.4193 22.4313 18.5128 22.4625C18.6062 22.4936 18.7049 22.5061 18.8032 22.4991C18.9015 22.4921 18.9974 22.4658 19.0855 22.4218C19.1736 22.3777 19.2522 22.3167 19.3167 22.2423C19.3813 22.1679 19.4305 22.0815 19.4617 21.988C19.4929 21.8945 19.5053 21.7958 19.4983 21.6976C19.4913 21.5993 19.4651 21.5034 19.421 21.4153L18.421 19.4153C18.4095 19.392 18.3968 19.3693 18.383 19.3473C20.134 17.9973 21.343 15.9313 21.485 13.6953C21.5 13.4503 21.5 13.2303 21.5 12.8553V12.8173C21.5 12.7573 21.5 12.6943 21.496 12.6373C21.4931 12.5914 21.4885 12.5457 21.482 12.5003H21.75C21.9489 12.5003 22.1397 12.4212 22.2803 12.2806C22.421 12.1399 22.5 11.9492 22.5 11.7503C22.5 11.5513 22.421 11.3606 22.2803 11.2199C22.1397 11.0793 21.9489 11.0003 21.75 11.0003H3.5V4.13526Z" fill="black"/>
</svg>
