<svg width="15" height="15" viewBox="0 0 15 15" fill="none" xmlns="http://www.w3.org/2000/svg">
<g clip-path="url(#clip0_126_4)">
<path fill-rule="evenodd" clip-rule="evenodd" d="M7.724 0.0529832C7.65447 0.0181418 7.57777 0 7.5 0C7.42223 0 7.34553 0.0181418 7.276 0.0529832L1.286 3.04798C1.20042 3.08851 1.12811 3.15251 1.07748 3.23252C1.02685 3.31254 0.999979 3.40529 1 3.49998V14H0V15H5V9.99998H10V15H15V14H14V3.49998C14 3.40529 13.9732 3.31254 13.9225 3.23252C13.8719 3.15251 13.7996 3.08851 13.714 3.04798L7.724 0.0529832ZM7 4.99998V2.99998H8V4.99998H10V5.99998H8V7.99998H7V5.99998H5V4.99998H7Z" fill="black"/>
<path d="M9 15V11H6V15H9Z" fill="black"/>
</g>
<defs>
<clipPath id="clip0_126_4">
<rect width="15" height="15" fill="white"/>
</clipPath>
</defs>
</svg>
