<svg width="24" height="24" viewBox="0 0 24 24" fill="none" xmlns="http://www.w3.org/2000/svg">
<path d="M18.6497 2.84945L19.2597 6.70945L22.7697 8.49945L20.9997 11.9995L22.7797 15.4995L19.2397 17.2895L18.6297 21.1495L14.7397 20.5395L11.9697 23.2995L9.18973 20.4995L5.32973 21.1395L4.70973 17.2495L1.21973 15.4695L2.99973 11.9695L1.22973 8.49945L4.73973 6.68945L5.34973 2.85945L9.21973 3.49945L11.9997 0.689453L14.7697 3.45945L18.6497 2.84945ZM9.49973 6.99945C9.1019 6.99945 8.72037 7.15749 8.43907 7.43879C8.15776 7.7201 7.99973 8.10163 7.99973 8.49945C7.99973 8.89728 8.15776 9.27881 8.43907 9.56011C8.72037 9.84142 9.1019 9.99945 9.49973 9.99945C9.89755 9.99945 10.2791 9.84142 10.5604 9.56011C10.8417 9.27881 10.9997 8.89728 10.9997 8.49945C10.9997 8.10163 10.8417 7.7201 10.5604 7.43879C10.2791 7.15749 9.89755 6.99945 9.49973 6.99945ZM14.4997 13.9995C14.1019 13.9995 13.7204 14.1575 13.4391 14.4388C13.1578 14.7201 12.9997 15.1016 12.9997 15.4995C12.9997 15.8973 13.1578 16.2788 13.4391 16.5601C13.7204 16.8414 14.1019 16.9995 14.4997 16.9995C14.8976 16.9995 15.2791 16.8414 15.5604 16.5601C15.8417 16.2788 15.9997 15.8973 15.9997 15.4995C15.9997 15.1016 15.8417 14.7201 15.5604 14.4388C15.2791 14.1575 14.8976 13.9995 14.4997 13.9995ZM8.40973 16.9995L16.9997 8.40945L15.5897 6.99945L6.99973 15.5895L8.40973 16.9995Z" fill="black"/>
</svg>
